<svg xmlns="http://www.w3.org/2000/svg" class="icon">
  <symbol id="search" viewBox="0 0 24 24">
    <path d="M3 11c0-4.411 3.589-8 8-8s8 3.589 8 8-3.589 8-8 8-8-3.589-8-8zm20 10.586l-4.258-4.259C20.152 15.604 21 13.401 21 11c0-5.523-4.477-10-10-10S1 5.477 1 11s4.477 10 10 10c2.401 0 4.604-.848 6.327-2.258L21.586 23 23 21.586z"/>
  </symbol>

  <symbol id="services" viewBox="0 0 24 24">
    <path d="M20 18c1.105 0 2 .895 2 2s-.895 2-2 2-2-.895-2-2 .895-2 2-2zm-8 0c1.105 0 2 .895 2 2s-.895 2-2 2-2-.895-2-2 .895-2 2-2zm-8 0c1.105 0 2 .895 2 2s-.895 2-2 2-2-.895-2-2 .895-2 2-2zm16-8c1.105 0 2 .895 2 2s-.895 2-2 2-2-.895-2-2 .895-2 2-2zm-8 0c1.105 0 2 .895 2 2s-.895 2-2 2-2-.895-2-2 .895-2 2-2zm-8 0c1.105 0 2 .895 2 2s-.895 2-2 2-2-.895-2-2 .895-2 2-2zm16-8c1.105 0 2 .895 2 2s-.895 2-2 2-2-.895-2-2 .895-2 2-2zm-8 0c1.105 0 2 .895 2 2s-.895 2-2 2-2-.895-2-2 .895-2 2-2zM4 2c1.105 0 2 .895 2 2s-.895 2-2 2-2-.895-2-2 .895-2 2-2z"/>
  </symbol>

  <symbol id="notify" viewBox="0 0 24 24">
    <path d="M10.492 19.942l6.04 2.21c-.64.53-1.46.85-2.37.85-1.83 0-3.35-1.32-3.67-3.06zM14.922 1c.73 0 1.474.126 2.201.39 3.341 1.216 5.061 4.905 3.845 8.245l-1.569 4.31c-.479 1.317.206 2.768 1.513 3.244l-1.422 3.906-16.845-6.131 1.422-3.906c.284.103.575.153.862.153 1.032 0 2.006-.636 2.381-1.665l1.569-4.311C9.83 2.622 12.295 1 14.922 1zm0 2c-1.855 0-3.529 1.173-4.164 2.919l-1.569 4.31c-.592 1.628-2.07 2.768-3.768 2.954l-.212.585 13.086 4.763.211-.582c-.337-.353-.619-.763-.832-1.22-.514-1.097-.568-2.33-.154-3.467l1.569-4.311c.835-2.297-.353-4.845-2.649-5.681-.493-.18-1.003-.27-1.518-.27z" />
  </symbol>

  <symbol id="settings" viewBox="0 0 24 24">
    <path d="M21.99 7.63L23 9.37l-2.43 1.41c.06.4.1.81.1 1.22 0 .42-.04.82-.1 1.22L23 14.63l-3.26 5.62h-.01l-2.13-1.23-.15-.09-.15-.09c-.16.12-.31.24-.48.35-.33.23-.67.42-1.02.6-.18.08-.36.16-.55.24v2.8h-6.5v-2.8c-.19-.08-.37-.16-.55-.24-.35-.18-.69-.37-1.02-.6-.17-.11-.32-.23-.48-.35l-.3.18-2.13 1.23h-.01l-1.01-1.74 1.73-1.01 1.98-1.15c.47.55 1.02 1.01 1.65 1.39.65.39 1.37.67 2.15.82v.27l.01-.01v2.01h2.46v-2.01l.01.01v-.27c.78-.15 1.5-.43 2.15-.82.63-.38 1.18-.84 1.65-1.39l1.98 1.15 1.24-2.14-1.99-1.15c.25-.69.38-1.43.38-2.2 0-.78-.13-1.52-.39-2.21l2-1.16 1.73-1.01zm-5.5 3.19c.1.38.16.77.16 1.18 0 2.57-2.08 4.65-4.65 4.65-1.27 0-2.43-.51-3.25-1.34l1.85-1.07c.41.26.89.41 1.4.41 1.46 0 2.65-1.19 2.65-2.65 0-.03 0-.07-.01-.1l1.85-1.08zm-1.24-9.65v2.8c.19.08.37.16.55.24.35.18.7.38 1.02.6.16.11.33.23.49.35l2.42-1.41h.01l1.01 1.74-1.73 1.01-2 1.16c-.96-1.11-2.29-1.9-3.79-2.18V3.17h-2.46v2.31c-1.5.28-2.83 1.07-3.79 2.18l-.02-.01L4.98 6.5 3.74 8.64l1.99 1.15.01.01c-.26.69-.39 1.43-.39 2.21 0 .77.13 1.51.38 2.2l-1.99 1.15-1.73 1.01L1 14.63l2.43-1.41c-.06-.4-.1-.8-.1-1.22 0-.41.04-.82.1-1.22L1 9.37l3.26-5.62h.01l2.42 1.41c.16-.12.33-.24.49-.35.32-.22.67-.42 1.02-.6.18-.08.36-.16.55-.24v-2.8h6.5zM12 7.35c1.26 0 2.42.5 3.25 1.33l-1.86 1.08c-.41-.26-.88-.41-1.39-.41-1.46 0-2.65 1.19-2.65 2.65 0 .03 0 .07.01.1l-1.85 1.07c-.11-.38-.16-.77-.16-1.17 0-2.57 2.08-4.65 4.65-4.65z" />
  </symbol>

  <symbol id="help" viewBox="0 0 24 24">
    <path d="M12 1c6.075 0 11 4.925 11 11s-4.925 11-11 11S1 18.075 1 12 5.925 1 12 1zm0 2c-4.962 0-9 4.037-9 9 0 4.962 4.038 9 9 9 4.963 0 9-4.038 9-9 0-4.963-4.037-9-9-9zm.47 14v2h-2v-2h2zm-.4-12c2.78 0 4.04 2.04 4.04 3.93 0 2.15-1.31 3.11-2.26 3.8-.24.18-.46.34-.64.49-.54.47-.83.91-.83 1.75V15h-2c0-.82.18-1.47.46-2 .47-.89 1.22-1.43 1.83-1.88.94-.69 1.44-1.11 1.44-2.19 0-.32-.1-1.93-2.04-1.93-1.71 0-2.2 1.6-2.25 1.78l-1.93-.51C8.18 7.14 9.43 5 12.07 5z" />
  </symbol>

  <symbol id="logout" viewBox="0 0 24 24">
    <path d="M13 1v4h-2V3H3v18h8v-2h2v4H1V1h12zm4.343 5.344l4.242 4.244L23 12.002l-1.414 1.413-4.242 4.244-1.415-1.415 3.243-3.242H7.001v-2h12.171L15.928 7.76l1.415-1.415z" />
  </symbol>
</svg>
