<svg xmlns="http://www.w3.org/2000/svg" class="icon">
  <symbol id="paymentPlan" viewBox="0 0 120 120">
    <path d="M86.73 0c5.7 0 10.55 3.67 12.29 8.78.36 1.02.59 2.1.67 3.22h-2.01c-.1-1.13-.38-2.21-.8-3.22C95.23 4.8 91.3 2 86.73 2c-5.72 0-10.45 4.4-10.95 10-.03.33-.05.66-.05 1 0 .34.02.67.05 1h31.83l-3.28 22-4.75 31.87-1.06 7.1c-1.53 10.28-10.36 17.89-20.75 17.89h-3.16V67.87h22.945l.045-.3 2.13-14.28-.3 2H81.21l-1.57 10.58h-2.02l1.57-10.58H61.92l-2.43 16.28h13.12v2H59.2l-1.68 11.29-.9 6h15.99v2H0L8.46 36h-.01l3.29-22h9.93c.04.68.13 1.35.27 2h-8.48l-2.68 18h91.83l2.68-18H76.15c1.304 4.604 5.543 7.991 10.56 8v2c-6.132-.009-11.26-4.28-12.608-10h-.042c-.16-.65-.26-1.32-.3-2h.02c-.04-.33-.05-.66-.05-1 0-.34.01-.67.05-1 .5-6.71 6.11-12 12.95-12zm21.92 20.61L120 92.86H87.07c1.26-.56 2.45-1.23 3.58-2h27.01l-10-63.64.99-6.61zM97.257 69.87H76.61v20.99h1.16c.952 0 1.887-.09 2.807-.23 6.967-1.06 12.856-5.973 15.146-12.609.37-1.072.646-2.189.817-3.34l.717-4.81zM38.3 73.57H22.03l-1.68 11.29-.9 6h16.28l.89-6 1.68-11.29zm18.87 0H40.33l-1.68 11.29-.9 6H54.6l.89-6 1.68-11.29zM102.31 36H10.48L2.32 90.86h15.11l.89-6L20 73.57h-9.04l.3-2h9.04l2.42-16.28h-9.05l.3-2h9.05L24.7 42h2.02l-1.68 11.29h16.28L43 42h2.02l-1.68 11.29h16.85L61.87 42h2.02l-1.68 11.29h17.28L81.17 42h2.02l-1.68 11.29h18.22L102.31 36zM41.02 55.29H24.75l-2.43 16.28H38.6l2.42-16.28zm18.87 0H43.05l-2.43 16.28h16.85l2.42-16.28zM36.65 0c6.27 0 11.5 4.44 12.73 10.34.11.54.19 1.1.23 1.66H47.6c-.05-.57-.14-1.12-.28-1.66C46.13 5.55 41.8 2 36.65 2 30.93 2 26.2 6.4 25.7 12c-.03.33-.05.66-.05 1 0 .34.02.67.05 1h46.05c.04.68.13 1.35.27 2H26.07c1.305 4.613 5.553 8 10.58 8v2c-6.134 0-11.278-4.271-12.629-10h-.04c-.16-.65-.26-1.32-.3-2h.02c-.04-.33-.05-.66-.05-1 0-.34.01-.67.05-1 .5-6.71 6.12-12 12.95-12z" />
  </symbol>

</svg>
