<svg xmlns="http://www.w3.org/2000/svg" class="icon">
  <symbol id="home" viewBox="0 0 24 24">
      <path d="M19 20h-3v-4.01c0-2.21-1.79-4-4-4s-4 1.79-4 4V20H5v-8.43l-2 1.35V22h7v-6.01c0-1.11.9-2 2-2s2 .89
      2 2V22h7v-9.08l-2-1.35V20zM12.98 2.67l-.97-.66V2h-.02v.01l-.97.66L0 10.12l1.12 1.66L3 10.51l8.99-6.09h.02L21 10.51l1.88
      1.27L24 10.12 12.98 2.67z"/>
  </symbol>

  <symbol id="payment-plan" viewBox="0 0 24 24">
    <path d="M20.2 2c.99 0 1.8.81 1.8 1.8v8.305c1.236 1.263 2 2.989 2 4.895 0 3.866-3.134 7-7 7s-7-3.134-7-7 3.134-7 7-7c1.085 0 2.109.254 3.026.695-.009-.004-.017-.011-.026-.015V4H2v2h16v2H2v8h6.06c-.04.33-.06.66-.06 1 0 .34.02.67.06 1H1.8C.81 18 0 17.19 0 16.2V3.8C0 2.81.81 2 1.8 2zM17 12c-2.757 0-5 2.243-5 5s2.243 5 5 5 5-2.243 5-5-2.243-5-5-5zm1 2v2.59l1.83 1.82-1.42 1.42L16.59 18l-.59-.59V14h2zm-6.64-4c-.71.57-1.33 1.24-1.84 2H4v-2z"/>
  </symbol>

  <symbol id="projects" viewBox="0 0 24 24">
    <path d="M23 15.413v6.59H1v-6.58l2 2v2.58h18v-2.59l2-2zm-5.25-13.41v2h-9.5v2H23v6.59l-2.41 2.41h-2.84v2h-2v-4h4.01l1.24-1.24v-3.76H3v3.75l1.25 1.25h4v4h-2v-2H3.42L1 12.583v-6.58h5.25v-4h11.5zm-4 11v2h-3.5v-2h3.5z" />
  </symbol>

  <symbol id="contractors" viewBox="0 0 24 24">
    <path d="M18.346 7.834l-.026-.002-.024.002c-1.32-.015-2.392-1.091-2.392-2.416C15.904 4.085 16.99 3 18.322 3c1.334 0 2.418 1.084 2.418 2.417 0 1.325-1.072 2.403-2.394 2.416m3.153.645c.765-.795 1.241-1.871 1.241-3.061C22.74 2.978 20.762 1 18.322 1c-2.44 0-4.418 1.978-4.418 4.417 0 1.19.477 2.268 1.243 3.062-.527.217-1.036.466-1.503.779-.976-1.6-2.733-2.672-4.744-2.672-3.07 0-5.56 2.49-5.56 5.56 0 .93.23 1.8.63 2.57.33.63.77 1.18 1.3 1.63 0 0 .01.01.01 0 .004.004.01.006.013.009-1.667.609-3.14 1.619-4.293 2.926v3.73c1.28-3.11 4.34-5.3 7.9-5.3 3.56 0 6.62 2.19 7.9 5.3v-3.73c-1.152-1.307-2.626-2.317-4.293-2.926.004-.003.01-.005.013-.01-.058-.02-.118-.034-.176-.054-.074-.026-.149-.047-.224-.071-.255-.082-.515-.155-.778-.217-.096-.023-.19-.045-.288-.065-.283-.06-.569-.106-.859-.142-.06-.007-.12-.018-.18-.024-.367-.04-.738-.066-1.115-.066-1.26 0-2.36-.65-2.99-1.63-.36-.55-.57-1.21-.57-1.93 0-1.96 1.59-3.56 3.56-3.56 1.96 0 3.56 1.6 3.56 3.56 0 .72-.21 1.38-.57 1.93.67.16 1.32.37 1.94.64.4-.77.63-1.64.63-2.57 0-.315-.032-.623-.083-.924 1.077-.86 2.436-1.383 3.916-1.39l.03.003.027-.002c1.838.008 3.496.795 4.65 2.058v-2.64c-.467-.311-.976-.558-1.5-.773" />
  </symbol>

  <symbol id="invoices" viewBox="0 0 24 24">
    <path d="M22 .001v19.58l-2-.729V2.002H4v19.87l3.08-1.12 3.07 1.12 3.08-1.12 3.07 1.12 3.07-1.12.63.23 2 .73v2.13l-2.63-.96-3.07 1.12-3.07-1.12-3.08 1.12-3.07-1.12L4 24.001H2v-24h20zm-4 13v2H6v-2h12zm0-4v2H6v-2h12zm-6-4v2H6v-2h6z"/>
  </symbol>

</svg>
