<svg xmlns="http://www.w3.org/2000/svg" width="54" height="54" viewBox="0 0 54 54">
    <g fill="none" fill-rule="evenodd">
        <g fill="#FFF">
            <path d="M52.37 53.105c-1.084 1.091-2.967.801-3.732-.04L27.427 30.278l-.804-.859C19.225 37.361 11.83 45.306 4.436 53.252c-.762.84-2.643 1.13-3.725.04-1.092-1.081-.803-2.966.039-3.73 7.97-7.415 15.935-14.83 23.904-22.248 0 0-3.857-4.16-5.52-5.946-3.892 2.79-9.66 1.729-13.126-2.551C2.28 14.3-.937 6.225 2.177 2.917c3.31-3.115 11.381.108 15.897 3.833 4.28 3.47 5.347 9.23 2.55 13.124 2.005 1.867 4.01 3.73 6.015 5.596l-.013.01s.125.097.013-.01c1.875-1.746 3.75-3.49 5.625-5.238-1.584-2.704-.53-6.497 2.042-8.663C37.257 9.096 48.191-.29 48.484.007c.293.292-7.375 7.538-12.498 12.676l.854.854c5.47-4.793 13.19-11.981 13.487-11.69.293.295-7.136 7.777-12.092 13.088l.848.845C44.385 10.82 51.87 3.391 52.16 3.683c.295.295-6.895 8.016-11.688 13.485l.848.847C46.457 12.892 53.7 5.225 53.994 5.514c.298.295-11.541 14.166-11.558 14.187-.002-.003 2.513-2.955-.01-.007-2.407 2.816-6.002 3.668-8.66 2.046l-5.17 5.555c-.152-.143 15.82 14.721 23.729 22.081.843.768 1.134 2.649.044 3.73z" transform="translate(-21 -35) translate(21 35)"/>
        </g>
    </g>
</svg>
